<svg xmlns="http://www.w3.org/2000/svg" width="400" height="900" version="1.1">
    <defs>
        <g id="grid">
            <line x1="0" x2="0" y1="0" y2="200" stroke="lightgray" stroke-width="1"/>
            <line x1="20" x2="20" y1="0" y2="200" stroke="lightgray" stroke-width="1"/>
            <line x1="40" x2="40" y1="0" y2="200" stroke="lightgray" stroke-width="1"/>
            <line x1="60" x2="60" y1="0" y2="200" stroke="lightgray" stroke-width="1"/>
            <line x1="80" x2="80" y1="0" y2="200" stroke="lightgray" stroke-width="1"/>
            <line x1="100" x2="100" y1="0" y2="200" stroke="lightgray" stroke-width="1"/>
            <line x1="120" x2="120" y1="0" y2="200" stroke="lightgray" stroke-width="1"/>
            <line x1="140" x2="140" y1="0" y2="200" stroke="lightgray" stroke-width="1"/>
            <line x1="160" x2="160" y1="0" y2="200" stroke="lightgray" stroke-width="1"/>
            <line x1="180" x2="180" y1="0" y2="200" stroke="lightgray" stroke-width="1"/>
            <line x1="200" x2="200" y1="0" y2="200" stroke="lightgray" stroke-width="1"/>
            <line x1="220" x2="220" y1="0" y2="200" stroke="lightgray" stroke-width="1"/>
            <line x1="240" x2="240" y1="0" y2="200" stroke="lightgray" stroke-width="1"/>
            <line x1="260" x2="260" y1="0" y2="200" stroke="lightgray" stroke-width="1"/>
            <line x1="280" x2="280" y1="0" y2="200" stroke="lightgray" stroke-width="1"/>
            <line x1="300" x2="300" y1="0" y2="200" stroke="lightgray" stroke-width="1"/>
            <line x1="0" x2="300" y1="0" y2="0" stroke="lightgray" stroke-width="1"/>
            <line x1="0" x2="300" y1="20" y2="20" stroke="lightgray" stroke-width="1"/>
            <line x1="0" x2="300" y1="40" y2="40" stroke="lightgray" stroke-width="1"/>
            <line x1="0" x2="300" y1="60" y2="60" stroke="lightgray" stroke-width="1"/>
            <line x1="0" x2="300" y1="80" y2="80" stroke="lightgray" stroke-width="1"/>
            <line x1="0" x2="300" y1="100" y2="100" stroke="lightgray" stroke-width="1"/>
            <line x1="0" x2="300" y1="120" y2="120" stroke="lightgray" stroke-width="1"/>
            <line x1="0" x2="300" y1="140" y2="140" stroke="lightgray" stroke-width="1"/>
            <line x1="0" x2="300" y1="160" y2="160" stroke="lightgray" stroke-width="1"/>
            <line x1="0" x2="300" y1="180" y2="180" stroke="lightgray" stroke-width="1"/>
            <line x1="0" x2="300" y1="200" y2="200" stroke="lightgray" stroke-width="1"/>
            <line x1="0" x2="0" y1="0" y2="200" stroke="black" stroke-width="1"/>
            <text x="0" y="-5" text-anchor="middle">
                0
            </text>
            <line x1="100" x2="100" y1="0" y2="200" stroke="black" stroke-width="1"/>
            <text x="100" y="-5" text-anchor="middle">
                100
            </text>
            <line x1="200" x2="200" y1="0" y2="200" stroke="black" stroke-width="1"/>
            <text x="200" y="-5" text-anchor="middle">
                200
            </text>
            <line x1="300" x2="300" y1="0" y2="200" stroke="black" stroke-width="1"/>
            <text x="300" y="-5" text-anchor="middle">
                300
            </text>
            <line x1="0" x2="300" y1="0" y2="0" stroke="black" stroke-width="1"/>
            <line x1="0" x2="300" y1="100" y2="100" stroke="black" stroke-width="1"/>
            <text x="-30" y="105">
                100
            </text>
            <line x1="0" x2="300" y1="200" y2="200" stroke="black" stroke-width="1"/>
            <text x="-30" y="205">
                200
            </text>
        </g>
    </defs>
    <g transform="translate(0,0)">
        <g transform="translate(30,30)">
            <use href="#grid"/>
        </g>
    </g>
    <g transform="translate(0,300)">
        <g transform="translate(30,30)">
            <use href="#grid"/>
        </g>
    </g>
    <g transform="translate(0,600)">
        <g transform="translate(30,30)">
            <use href="#grid"/>
        </g>
    </g>
</svg>
